<svg width="40" height="41" viewBox="0 0 40 41" fill="none" xmlns="http://www.w3.org/2000/svg">
<path d="M19.994 37.5552L16.523 40.4551L14.235 36.5352L9.995 38.0471L9.17297 33.5671L4.67999 33.5222L5.41199 29.0222L1.20398 27.4221L3.414 23.4563L0 20.4912L3.41199 17.5242L1.20203 13.5591L5.41101 11.9592L4.67798 7.46411L9.172 7.42017L9.99402 2.94019L14.234 4.45117L16.522 0.53125L19.993 3.43115L23.464 0.53125L25.753 4.45215L29.993 2.94019L30.814 7.42114L35.308 7.46606L34.576 11.9612L38.784 13.5613L36.574 17.5271L39.986 20.4922L36.574 23.4592L38.783 27.4253L34.574 29.0251L35.307 33.5193L30.812 33.5642L29.991 38.0452L25.753 36.5342L23.464 40.4541L19.994 37.5552ZM21.2 36.0723L22.961 37.5432L24.122 35.5532L24.914 34.1973L26.382 34.7202L28.533 35.4883L28.95 33.2151L29.235 31.6602L30.796 31.6443L33.078 31.6233L32.706 29.3411L32.452 27.7812L33.911 27.2273L36.045 26.4141L34.925 24.4043L34.159 23.0293L35.342 22.0022L37.076 20.4922L35.343 18.9922L34.16 17.9631L34.926 16.5872L36.047 14.5762L33.913 13.7651L32.454 13.2122L32.709 11.6521L33.081 9.37109L30.799 9.34814L29.239 9.33228L28.954 7.77808L28.538 5.50513L26.386 6.27222L24.918 6.79517L24.125 5.43823L22.963 3.44824L21.201 4.91919L19.996 5.92407L18.791 4.91919L17.03 3.44824L15.869 5.43726L15.077 6.79419L13.608 6.27124L11.458 5.50317L11.04 7.7771L10.755 9.3313L9.19501 9.34717L6.914 9.36914L7.28601 11.6511L7.53998 13.2092L6.08099 13.7642L3.94598 14.5752L5.06702 16.5862L5.83301 17.9612L4.65002 18.9902L2.91602 20.4983L4.64899 22.0051L5.83197 23.0342L5.06598 24.4092L3.94501 26.4192L6.078 27.2292L7.53802 27.7842L7.28302 29.3433L6.91199 31.6272L9.19299 31.6501L10.753 31.6663L11.038 33.2212L11.455 35.4932L13.607 34.7261L15.076 34.2031L15.868 35.5601L17.03 37.5503L18.791 36.0791L19.996 35.0742L21.2 36.0723ZM21.318 23.5513C21.318 20.6243 22.883 18.9961 24.777 18.9961C26.783 18.9961 28.077 20.5592 28.077 23.3262C28.077 26.3852 26.492 27.9031 24.662 27.9031C22.883 27.9031 21.338 26.4533 21.318 23.5513ZM22.839 23.4631C22.816 25.3141 23.521 26.7212 24.711 26.7212C25.988 26.7212 26.561 25.3361 26.561 23.4211C26.561 21.6561 26.054 20.1841 24.711 20.1841C23.5 20.1801 22.839 21.6342 22.839 23.4622V23.4631ZM15.194 27.8633L23.609 13.1443H24.842L16.427 27.8633H15.194ZM11.979 17.5212C11.979 14.6212 13.542 12.9893 15.437 12.9893C17.437 12.9893 18.763 14.5533 18.763 17.3213C18.763 20.3793 17.177 21.8962 15.327 21.8962C13.544 21.8962 12 20.4462 11.979 17.5222V17.5212ZM13.521 17.4551C13.477 19.3061 14.162 20.7121 15.371 20.7141C16.648 20.7141 17.221 19.3301 17.221 17.4141C17.221 15.6481 16.714 14.1763 15.371 14.1763C14.162 14.1733 13.521 15.6233 13.521 17.4563V17.4551Z" fill="#F16D7F"/>
</svg>
