<svg width="46" height="33" viewBox="0 0 46 33" fill="none" xmlns="http://www.w3.org/2000/svg">
<path d="M30.2873 27.4031H14.8103C14.6031 28.7111 13.936 29.9022 12.929 30.7622C11.922 31.6223 10.6411 32.0947 9.31682 32.0947C7.99252 32.0947 6.71166 31.6223 5.70464 30.7622C4.69762 29.9022 4.03052 28.7111 3.82332 27.4031H1.88631C1.39149 27.3999 0.918139 27.2006 0.570025 26.8489C0.221911 26.4972 0.0274507 26.0219 0.0293142 25.5271V2.03711C0.0271852 1.54211 0.221516 1.06649 0.569658 0.7146C0.917801 0.362708 1.39131 0.16333 1.88631 0.160156H27.4373C27.9322 0.16333 28.4056 0.362679 28.7536 0.7146C29.1016 1.06652 29.2957 1.5422 29.2933 2.03711V3.94214H36.4143C36.4947 3.9418 36.5747 3.95223 36.6523 3.97314C38.9523 4.17314 40.1093 5.37306 41.3293 7.43506L44.8883 13.5291C44.9732 13.6737 45.018 13.8384 45.0183 14.0061V26.4641C45.0194 26.7117 44.9221 26.9494 44.7479 27.1252C44.5737 27.3011 44.3369 27.4008 44.0893 27.4021H41.2753C41.0681 28.7101 40.401 29.9012 39.394 30.7612C38.387 31.6213 37.1061 32.0938 35.7818 32.0938C34.4575 32.0938 33.1767 31.6213 32.1696 30.7612C31.1626 29.9012 30.4955 28.7101 30.2883 27.4021L30.2873 27.4031ZM32.0653 26.4641C32.0732 27.1971 32.2977 27.9112 32.7107 28.5168C33.1236 29.1225 33.7065 29.5923 34.3859 29.8674C35.0653 30.1425 35.811 30.2105 36.5289 30.0627C37.2469 29.915 37.9051 29.5581 38.4207 29.0371C38.9363 28.5161 39.2862 27.8542 39.4265 27.1348C39.5667 26.4153 39.491 25.6704 39.2088 24.9939C38.9267 24.3174 38.4507 23.7396 37.8408 23.333C37.2309 22.9264 36.5143 22.7092 35.7813 22.709C34.791 22.7153 33.8436 23.1144 33.1469 23.8184C32.4503 24.5223 32.0613 25.4738 32.0653 26.4641ZM5.60134 26.4641C5.60923 27.1971 5.83376 27.9112 6.24669 28.5168C6.65962 29.1225 7.2425 29.5923 7.92192 29.8674C8.60135 30.1425 9.34697 30.2105 10.0649 30.0627C10.7829 29.915 11.4411 29.5581 11.9567 29.0371C12.4723 28.5161 12.8222 27.8542 12.9625 27.1348C13.1027 26.4153 13.027 25.6704 12.7448 24.9939C12.4627 24.3174 11.9867 23.7396 11.3768 23.333C10.7669 22.9264 10.0503 22.7092 9.31731 22.709C8.32679 22.7151 7.37915 23.1139 6.6823 23.8179C5.98545 24.5218 5.59634 25.4736 5.60033 26.4641H5.60134ZM41.2733 25.5261H43.1593V19.908H40.4233C40.3007 19.9074 40.1794 19.8829 40.0664 19.8354C39.9533 19.788 39.8507 19.7187 39.7644 19.6316C39.6781 19.5445 39.6099 19.4412 39.5635 19.3276C39.5172 19.2141 39.4937 19.0926 39.4943 18.97V17.123C39.494 16.4024 39.7696 15.709 40.2643 15.1851H33.8853C33.8081 15.185 33.7312 15.1752 33.6563 15.156C32.9516 15.0931 32.2961 14.7683 31.8194 14.2454C31.3428 13.7224 31.0798 13.0396 31.0823 12.332V7.63208C31.0817 7.50943 31.1052 7.38774 31.1515 7.27417C31.1978 7.1606 31.2661 7.05741 31.3523 6.97021C31.4386 6.88302 31.5412 6.81366 31.6543 6.76611C31.7674 6.71857 31.8887 6.69377 32.0113 6.69312H38.4943C38.15 6.37444 37.7426 6.13139 37.2986 5.97998C36.8545 5.82857 36.3836 5.77202 35.9163 5.81396H29.2933V25.522H30.2873C30.4945 24.214 31.1616 23.0229 32.1687 22.1628C33.1757 21.3028 34.4565 20.8303 35.7808 20.8303C37.1051 20.8303 38.386 21.3028 39.393 22.1628C40.4 23.0229 41.0671 24.214 41.2743 25.522L41.2733 25.5261ZM14.8093 25.5261H27.4363V2.03613H1.88631V25.5261H3.82332C4.03052 24.2181 4.69762 23.0268 5.70464 22.1667C6.71166 21.3067 7.99252 20.8342 9.31682 20.8342C10.6411 20.8342 11.922 21.3067 12.929 22.1667C13.936 23.0268 14.6031 24.2181 14.8103 25.5261H14.8093ZM41.3513 17.126V18.0352H43.1593V16.188H42.2803C42.0335 16.1896 41.7973 16.2889 41.6234 16.4641C41.4495 16.6393 41.352 16.8762 41.3523 17.123L41.3513 17.126ZM32.9383 12.334C32.9372 12.5865 33.0363 12.8292 33.2139 13.0088C33.3914 13.1884 33.6328 13.2901 33.8853 13.292C33.9492 13.2918 34.0129 13.2985 34.0753 13.312H42.6003L39.8343 8.57617H32.9343L32.9383 12.334ZM33.0313 26.4661C33.0284 25.7335 33.3162 25.0297 33.8316 24.509C34.3469 23.9884 35.0478 23.6935 35.7803 23.689C36.0291 23.689 36.2677 23.788 36.4436 23.9639C36.6195 24.1398 36.7183 24.3782 36.7183 24.627C36.7183 24.8757 36.6195 25.1144 36.4436 25.2903C36.2677 25.4662 36.0291 25.5649 35.7803 25.5649C35.602 25.5634 35.4272 25.615 35.2782 25.7129C35.1291 25.8108 35.0125 25.9507 34.9432 26.115C34.8738 26.2793 34.8548 26.4606 34.8887 26.6357C34.9225 26.8108 35.0076 26.972 35.1331 27.0986C35.2586 27.2253 35.419 27.3118 35.5938 27.3472C35.7686 27.3825 35.9499 27.3652 36.1149 27.2974C36.2798 27.2295 36.4208 27.114 36.5201 26.9658C36.6193 26.8176 36.6723 26.6434 36.6723 26.4651C36.6723 26.2188 36.7701 25.9827 36.9443 25.8086C37.1184 25.6345 37.3546 25.5366 37.6008 25.5366C37.8471 25.5366 38.0832 25.6345 38.2574 25.8086C38.4315 25.9827 38.5293 26.2188 38.5293 26.4651C38.5293 27.1944 38.2396 27.8939 37.7239 28.4097C37.2081 28.9254 36.5087 29.2151 35.7793 29.2151C35.05 29.2151 34.3505 28.9254 33.8348 28.4097C33.319 27.8939 33.0293 27.1944 33.0293 26.4651L33.0313 26.4661ZM6.56731 26.4661C6.56438 25.7335 6.8522 25.0297 7.36757 24.509C7.88294 23.9884 8.58378 23.6935 9.31633 23.689C9.5651 23.689 9.80369 23.788 9.9796 23.9639C10.1555 24.1398 10.2543 24.3782 10.2543 24.627C10.2543 24.8757 10.1555 25.1144 9.9796 25.2903C9.80369 25.4662 9.5651 25.5649 9.31633 25.5649C9.138 25.5634 8.96319 25.615 8.81413 25.7129C8.66508 25.8108 8.54849 25.9507 8.47914 26.115C8.4098 26.2793 8.39082 26.4606 8.42464 26.6357C8.45846 26.8108 8.54354 26.972 8.66908 27.0986C8.79463 27.2253 8.95498 27.3118 9.12978 27.3472C9.30458 27.3825 9.48595 27.3652 9.65087 27.2974C9.81579 27.2295 9.95683 27.114 10.0561 26.9658C10.1553 26.8176 10.2083 26.6434 10.2083 26.4651C10.2083 26.2188 10.3061 25.9827 10.4803 25.8086C10.6544 25.6345 10.8906 25.5366 11.1368 25.5366C11.3831 25.5366 11.6193 25.6345 11.7934 25.8086C11.9675 25.9827 12.0653 26.2188 12.0653 26.4651C12.0653 27.1944 11.7756 27.8939 11.2599 28.4097C10.7441 28.9254 10.0447 29.2151 9.31532 29.2151C8.58598 29.2151 7.8865 28.9254 7.37078 28.4097C6.85505 27.8939 6.56532 27.1944 6.56532 26.4651L6.56731 26.4661ZM4.70934 5.82007C4.46056 5.82007 4.22198 5.72132 4.04607 5.54541C3.87016 5.3695 3.77132 5.13085 3.77132 4.88208C3.77132 4.63331 3.87016 4.39466 4.04607 4.21875C4.22198 4.04284 4.46056 3.94409 4.70934 3.94409H24.6093C24.8581 3.94409 25.0967 4.04284 25.2726 4.21875C25.4485 4.39466 25.5473 4.63331 25.5473 4.88208C25.5473 5.13085 25.4485 5.3695 25.2726 5.54541C25.0967 5.72132 24.8581 5.82007 24.6093 5.82007H4.70934Z" fill="#F16D7F"/>
</svg>
